TITLE ""
FILE "1Q_t_1159-1167.mp3" MP3
  TRACK 01 AUDIO
    TITLE "1Q_t_1159-1167_01"
    INDEX 01 00:00:00
  TRACK 02 AUDIO
    TITLE "1Q_t_1159-1167_02"
    INDEX 01 00:01:29
  TRACK 03 AUDIO
    TITLE "1Q_t_1159-1167_03"
    INDEX 01 00:01:37
  TRACK 04 AUDIO
    TITLE "1Q_t_1159-1167_04"
    INDEX 01 00:02:48
  TRACK 05 AUDIO
    TITLE "1Q_t_1159-1167_05"
    INDEX 01 00:02:54
  TRACK 06 AUDIO
    TITLE "1Q_t_1159-1167_06"
    INDEX 01 00:08:04
  TRACK 07 AUDIO
    TITLE "1Q_t_1159-1167_07"
    INDEX 01 00:08:49
  TRACK 08 AUDIO
    TITLE "1Q_t_1159-1167_08"
    INDEX 01 00:09:60
  TRACK 09 AUDIO
    TITLE "1Q_t_1159-1167_09"
    INDEX 01 00:09:68
  TRACK 10 AUDIO
    TITLE "1Q_t_1159-1167_10"
    INDEX 01 00:10:69
  TRACK 11 AUDIO
    TITLE "1Q_t_1159-1167_11"
    INDEX 01 00:11:02
  TRACK 12 AUDIO
    TITLE "1Q_t_1159-1167_12"
    INDEX 01 00:16:37
  TRACK 13 AUDIO
    TITLE "1Q_t_1159-1167_13"
    INDEX 01 00:17:07
  TRACK 14 AUDIO
    TITLE "1Q_t_1159-1167_14"
    INDEX 01 00:18:16
  TRACK 15 AUDIO
    TITLE "1Q_t_1159-1167_15"
    INDEX 01 00:18:26
  TRACK 16 AUDIO
    TITLE "1Q_t_1159-1167_16"
    INDEX 01 00:19:31
  TRACK 17 AUDIO
    TITLE "1Q_t_1159-1167_17"
    INDEX 01 00:19:37
  TRACK 18 AUDIO
    TITLE "1Q_t_1159-1167_18"
    INDEX 01 00:26:23
  TRACK 19 AUDIO
    TITLE "1Q_t_1159-1167_19"
    INDEX 01 00:26:68
  TRACK 20 AUDIO
    TITLE "1Q_t_1159-1167_20"
    INDEX 01 00:28:07
  TRACK 21 AUDIO
    TITLE "1Q_t_1159-1167_21"
    INDEX 01 00:28:16
  TRACK 22 AUDIO
    TITLE "1Q_t_1159-1167_22"
    INDEX 01 00:32:01
  TRACK 23 AUDIO
    TITLE "1Q_t_1159-1167_23"
    INDEX 01 00:32:08
  TRACK 24 AUDIO
    TITLE "1Q_t_1159-1167_24"
    INDEX 01 00:37:64
  TRACK 25 AUDIO
    TITLE "1Q_t_1159-1167_25"
    INDEX 01 00:38:34
  TRACK 26 AUDIO
    TITLE "1Q_t_1159-1167_26"
    INDEX 01 00:39:51
  TRACK 27 AUDIO
    TITLE "1Q_t_1159-1167_27"
    INDEX 01 00:39:59
  TRACK 28 AUDIO
    TITLE "1Q_t_1159-1167_28"
    INDEX 01 00:41:45
  TRACK 29 AUDIO
    TITLE "1Q_t_1159-1167_29"
    INDEX 01 00:41:48
  TRACK 30 AUDIO
    TITLE "1Q_t_1159-1167_30"
    INDEX 01 00:46:50
  TRACK 31 AUDIO
    TITLE "1Q_t_1159-1167_31"
    INDEX 01 00:47:18
  TRACK 32 AUDIO
    TITLE "1Q_t_1159-1167_32"
    INDEX 01 00:48:29
  TRACK 33 AUDIO
    TITLE "1Q_t_1159-1167_33"
    INDEX 01 00:48:37
  TRACK 34 AUDIO
    TITLE "1Q_t_1159-1167_34"
    INDEX 01 00:50:40
  TRACK 35 AUDIO
    TITLE "1Q_t_1159-1167_35"
    INDEX 01 00:50:45
  TRACK 36 AUDIO
    TITLE "1Q_t_1159-1167_36"
    INDEX 01 00:57:00
  TRACK 37 AUDIO
    TITLE "1Q_t_1159-1167_37"
    INDEX 01 00:57:46
  TRACK 38 AUDIO
    TITLE "1Q_t_1159-1167_38"
    INDEX 01 00:58:49
  TRACK 39 AUDIO
    TITLE "1Q_t_1159-1167_39"
    INDEX 01 00:58:57
  TRACK 40 AUDIO
    TITLE "1Q_t_1159-1167_40"
    INDEX 01 00:59:68
  TRACK 41 AUDIO
    TITLE "1Q_t_1159-1167_41"
    INDEX 01 00:59:74
  TRACK 42 AUDIO
    TITLE "1Q_t_1159-1167_42"
    INDEX 01 01:06:17
  TRACK 43 AUDIO
    TITLE "1Q_t_1159-1167_43"
    INDEX 01 01:06:60
  TRACK 44 AUDIO
    TITLE "1Q_t_1159-1167_44"
    INDEX 01 01:07:64
  TRACK 45 AUDIO
    TITLE "1Q_t_1159-1167_45"
    INDEX 01 01:07:71
  TRACK 46 AUDIO
    TITLE "1Q_t_1159-1167_46"
    INDEX 01 01:09:74
  TRACK 47 AUDIO
    TITLE "1Q_t_1159-1167_47"
    INDEX 01 01:10:07
  TRACK 48 AUDIO
    TITLE "1Q_t_1159-1167_48"
    INDEX 01 01:14:73
  TRACK 49 AUDIO
    TITLE "1Q_t_1159-1167_49"
    INDEX 01 01:15:41
  TRACK 50 AUDIO
    TITLE "1Q_t_1159-1167_50"
    INDEX 01 01:16:49
  TRACK 51 AUDIO
    TITLE "1Q_t_1159-1167_51"
    INDEX 01 01:16:57
  TRACK 52 AUDIO
    TITLE "1Q_t_1159-1167_52"
    INDEX 01 01:19:10
  TRACK 53 AUDIO
    TITLE "1Q_t_1159-1167_53"
    INDEX 01 01:19:18
  TRACK 54 AUDIO
    TITLE "1Q_t_1159-1167_54"
    INDEX 01 01:24:37
